<?xml version="1.0" standalone="no"?>
<!DOCTYPE svg PUBLIC "-//W3C//DTD SVG 20010904//EN"
 "http://www.w3.org/TR/2001/REC-SVG-20010904/DTD/svg10.dtd">
<svg version="1.0" xmlns="http://www.w3.org/2000/svg"
 width="1280.000000pt" height="924.000000pt" viewBox="0 0 1280.000000 924.000000"
 preserveAspectRatio="xMidYMid meet">
<metadata>
Created by potrace 1.15, written by Peter Selinger 2001-2017
</metadata>
<g transform="translate(0.000000,924.000000) scale(0.100000,-0.100000)"
fill="#000000" stroke="none">
<path d="M6258 8985 c-520 -73 -1166 -284 -1450 -471 -208 -138 -501 -563
-607 -882 -61 -186 -76 -284 -74 -511 2 -201 1 -204 -27 -281 -16 -43 -51
-123 -79 -179 -63 -124 -81 -191 -81 -296 0 -123 22 -180 122 -322 22 -31 29
-55 34 -114 9 -105 -4 -142 -64 -175 -26 -15 -71 -42 -99 -60 -51 -33 -55 -34
-160 -34 -108 0 -108 0 -162 36 -123 83 -258 135 -703 270 -336 102 -514 175
-700 290 -154 95 -426 244 -688 377 -289 147 -394 206 -564 320 -65 43 -171
110 -235 149 -64 39 -117 74 -119 79 -2 5 -9 9 -15 9 -12 0 -135 102 -293 243
-48 42 -89 75 -92 72 -3 -2 11 -29 31 -60 39 -58 49 -87 22 -65 -20 17 -19 1
3 -35 17 -27 307 -421 420 -570 85 -112 285 -359 532 -656 1000 -1205 1179
-1437 1314 -1709 40 -80 98 -184 129 -232 40 -61 67 -117 91 -190 67 -208 114
-264 295 -358 64 -33 145 -78 180 -100 100 -62 148 -55 199 28 29 47 31 48
133 80 111 35 193 41 224 18 18 -13 15 -18 -51 -97 -151 -180 -166 -214 -121
-280 12 -19 28 -47 35 -64 8 -16 31 -57 52 -90 27 -42 42 -79 50 -125 20 -118
59 -180 204 -326 l131 -131 64 -149 c77 -182 100 -250 207 -624 92 -322 108
-361 216 -543 145 -243 288 -411 462 -541 322 -241 432 -296 770 -390 179 -50
234 -56 536 -59 l275 -2 100 34 c55 18 145 53 200 76 55 23 118 48 140 55 78
24 312 118 373 149 137 69 296 273 457 586 90 174 223 400 378 640 223 345
250 389 336 553 48 92 102 190 118 217 45 76 72 158 89 265 8 59 25 123 43
161 16 35 36 91 46 124 12 44 32 79 75 130 31 39 67 86 79 105 27 45 27 112 0
186 l-22 57 22 43 c24 50 34 54 57 19 9 -13 62 -51 120 -85 81 -47 107 -68
120 -95 21 -44 78 -95 107 -95 12 0 58 21 102 46 44 25 133 72 197 105 88 45
128 72 159 107 44 51 109 160 109 184 0 44 47 158 106 254 37 60 90 155 119
211 29 55 75 134 102 175 27 40 79 123 116 184 37 60 89 137 115 170 198 244
968 1175 1255 1518 113 133 241 302 553 726 137 185 170 237 160 247 -3 3 -15
-5 -26 -18 l-21 -24 12 25 c7 14 30 48 51 77 21 29 38 55 38 58 0 11 -55 -33
-171 -136 -178 -158 -233 -201 -392 -298 -82 -51 -181 -113 -220 -140 -166
-112 -305 -191 -566 -320 -152 -75 -368 -191 -481 -258 -426 -250 -546 -306
-820 -384 -514 -147 -728 -234 -844 -345 -23 -22 -41 -29 -86 -32 -68 -5 -92
6 -114 51 -14 31 -14 39 -1 84 8 27 29 83 47 124 l31 74 8 280 c5 197 12 299
23 345 40 166 46 419 16 680 -51 441 -96 599 -217 750 -72 91 -135 150 -318
295 -77 61 -207 169 -290 239 -295 252 -399 305 -947 492 -247 84 -261 86
-598 90 -213 2 -322 -1 -392 -11z"/>
</g>
</svg>
