<svg width="50" height="50" viewBox="0 0 50 50" fill="none" xmlns="http://www.w3.org/2000/svg">
<path fill-rule="evenodd" clip-rule="evenodd" d="M25.0001 13.7813C29.3345 9.32813 40.1689 17.125 25.0001 27.1469C9.83136 17.125 20.6657 9.33125 25.0001 13.7875V13.7813Z" fill="black"/>
<path d="M6.25 6.25C6.25 4.5924 6.90848 3.00269 8.08058 1.83058C9.25268 0.65848 10.8424 0 12.5 0L37.5 0C39.1576 0 40.7473 0.65848 41.9194 1.83058C43.0915 3.00269 43.75 4.5924 43.75 6.25V48.4375C43.7499 48.7201 43.673 48.9974 43.5278 49.2399C43.3825 49.4823 43.1742 49.6808 42.925 49.8142C42.6758 49.9476 42.3951 50.0109 42.1128 49.9974C41.8305 49.9839 41.5572 49.8941 41.3219 49.7375L25 40.9406L8.67812 49.7375C8.44283 49.8941 8.16947 49.9839 7.88716 49.9974C7.60485 50.0109 7.32417 49.9476 7.075 49.8142C6.82583 49.6808 6.61751 49.4823 6.47223 49.2399C6.32695 48.9974 6.25015 48.7201 6.25 48.4375V6.25ZM12.5 3.125C11.6712 3.125 10.8763 3.45424 10.2903 4.04029C9.70424 4.62634 9.375 5.4212 9.375 6.25V45.5187L24.1344 37.7625C24.3908 37.5919 24.692 37.5008 25 37.5008C25.308 37.5008 25.6092 37.5919 25.8656 37.7625L40.625 45.5187V6.25C40.625 5.4212 40.2958 4.62634 39.7097 4.04029C39.1237 3.45424 38.3288 3.125 37.5 3.125H12.5Z" fill="black"/>
</svg>
